<?xml version="1.0" standalone="no"?>
<!DOCTYPE svg PUBLIC "-//W3C//DTD SVG 20010904//EN"
 "http://www.w3.org/TR/2001/REC-SVG-20010904/DTD/svg10.dtd">
<svg version="1.0" xmlns="http://www.w3.org/2000/svg"
 width="1060.000000pt" height="1158.000000pt" viewBox="0 0 1060.000000 1158.000000"
 preserveAspectRatio="xMidYMid meet">
<metadata>
Created by potrace 1.15, written by Peter Selinger 2001-2017
</metadata>
<g transform="translate(0.000000,1158.000000) scale(0.100000,-0.100000)"
fill="#000000" stroke="none">
<path d="M4391 11570 c-94 -13 -159 -40 -198 -81 -61 -64 -169 -236 -254 -402
-45 -89 -111 -211 -147 -272 -36 -60 -75 -129 -87 -153 -13 -27 -44 -60 -80
-87 -84 -63 -321 -177 -457 -221 l-118 -38 -137 23 c-76 12 -180 29 -231 37
-178 27 -557 127 -763 200 -53 19 -103 34 -112 34 -28 0 -171 80 -208 116
l-36 35 -84 -93 c-109 -120 -140 -159 -288 -356 -67 -90 -131 -172 -142 -183
-10 -10 -43 -57 -73 -103 -30 -46 -70 -101 -88 -123 -31 -34 -109 -141 -163
-222 -11 -17 -60 -85 -110 -151 -49 -66 -100 -135 -112 -153 -88 -127 -120
-171 -138 -191 -30 -33 -96 -124 -125 -172 -14 -24 -44 -64 -67 -91 -23 -26
-67 -79 -99 -117 l-57 -69 29 -24 c16 -12 34 -23 40 -23 16 0 97 -63 179 -138
39 -36 93 -82 120 -102 59 -44 553 -535 592 -588 15 -20 57 -71 93 -112 80
-91 149 -183 173 -230 10 -19 29 -53 42 -75 59 -96 164 -414 189 -575 8 -47
30 -175 50 -285 93 -519 122 -819 112 -1155 -13 -471 -53 -804 -172 -1431 -25
-133 -94 -332 -134 -389 -10 -14 -41 -70 -70 -125 -51 -100 -162 -284 -233
-385 -20 -30 -37 -59 -37 -65 0 -5 -17 -35 -38 -66 -20 -30 -58 -87 -83 -125
-72 -106 -181 -198 -559 -469 -226 -162 -261 -186 -285 -195 -23 -9 -26 -15
-21 -36 7 -28 100 -182 120 -198 16 -14 126 -171 126 -181 0 -4 26 -39 58 -79
31 -40 89 -114 127 -164 160 -211 221 -290 262 -336 23 -26 43 -53 43 -58 0
-5 28 -43 63 -85 136 -163 187 -228 187 -239 0 -5 17 -28 39 -50 21 -21 118
-140 216 -264 98 -124 183 -229 190 -235 7 -5 29 -35 49 -67 55 -85 59 -86 98
-41 100 116 254 250 512 444 182 137 199 149 209 149 5 0 57 33 116 73 284
197 421 239 766 241 217 1 283 -7 460 -56 183 -49 330 -109 600 -245 11 -5 51
-25 88 -44 38 -19 119 -76 180 -126 62 -51 114 -93 117 -93 3 0 61 -60 127
-134 79 -86 135 -158 158 -202 46 -87 67 -109 121 -130 39 -15 56 -15 152 -4
87 10 130 10 214 0 159 -19 210 6 274 131 36 73 217 283 299 349 228 183 271
214 325 231 19 6 67 28 105 49 94 51 325 152 405 178 272 86 336 96 590 96
299 -1 418 -29 625 -145 50 -28 99 -59 110 -69 11 -10 70 -48 130 -85 61 -36
115 -72 120 -78 6 -7 64 -52 130 -101 171 -125 306 -239 427 -360 l106 -105
36 44 c20 24 36 47 36 52 0 5 15 24 33 43 17 19 108 132 201 250 93 118 183
229 199 245 16 17 41 48 55 70 23 37 65 89 180 228 24 29 55 70 69 92 14 22
42 58 62 80 31 34 115 143 394 512 18 23 50 70 72 104 22 35 56 82 75 106 35
41 123 182 135 214 4 12 -3 20 -27 29 -31 13 -163 104 -268 185 -25 19 -67 48
-95 64 -27 16 -70 46 -95 68 -25 22 -85 70 -135 106 -49 37 -114 89 -143 115
-55 49 -184 225 -222 303 -11 24 -34 62 -49 84 -16 22 -61 92 -101 155 -199
320 -302 551 -334 748 -8 48 -19 107 -25 132 -20 90 -70 399 -90 560 -51 403
-71 832 -52 1100 16 218 124 944 146 979 2 4 9 45 15 91 24 176 141 520 210
616 16 23 30 47 30 52 0 15 87 130 153 202 33 36 76 88 97 115 40 54 568 585
582 585 4 0 49 37 99 83 96 86 197 167 210 167 4 0 24 10 44 21 l36 22 -34 36
c-54 58 -147 176 -213 274 -34 49 -72 101 -86 116 -28 29 -116 150 -144 197
-21 33 -156 217 -202 274 -16 19 -35 46 -42 60 -12 23 -112 157 -188 253 -18
23 -41 58 -52 77 -11 19 -34 54 -52 77 -18 22 -82 106 -142 185 -167 219 -212
275 -309 381 l-89 97 -45 -40 c-42 -40 -172 -110 -202 -110 -8 0 -51 -13 -95
-30 -183 -67 -600 -177 -778 -204 -51 -8 -155 -25 -230 -37 l-138 -23 -132 43
c-180 60 -427 189 -484 252 -31 35 -163 265 -274 479 -105 203 -236 400 -284
429 -17 11 -58 28 -91 38 -55 16 -93 18 -440 14 -564 -6 -668 -6 -1040 1 -191
4 -368 3 -404 -2z m639 -81 c165 -12 440 -8 735 11 297 19 525 -11 587 -77 47
-51 212 -330 300 -509 85 -171 160 -293 226 -364 72 -79 171 -134 433 -239
155 -62 184 -71 240 -71 84 0 378 54 599 110 41 10 98 21 125 25 116 15 514
145 653 213 l103 51 39 -39 c21 -21 47 -51 56 -67 10 -15 45 -61 79 -101 100
-122 165 -206 165 -217 0 -5 25 -39 54 -74 30 -35 121 -154 201 -265 81 -110
167 -228 191 -261 24 -33 63 -88 87 -121 23 -34 74 -104 112 -155 39 -52 80
-108 90 -125 25 -40 138 -192 190 -257 22 -27 49 -64 60 -81 11 -18 35 -51 53
-73 17 -23 32 -45 32 -49 0 -5 -19 -22 -43 -39 -61 -43 -274 -223 -289 -244
-7 -10 -21 -22 -30 -27 -24 -13 -266 -250 -392 -384 -257 -272 -434 -510 -503
-673 -19 -45 -46 -125 -59 -177 -14 -52 -32 -117 -40 -145 -44 -149 -115 -526
-169 -900 -72 -501 -48 -1181 65 -1831 36 -206 80 -404 114 -511 14 -43 29
-97 34 -120 10 -42 135 -281 177 -338 13 -16 44 -70 69 -120 26 -49 55 -99 65
-110 10 -11 44 -63 76 -115 32 -52 66 -104 75 -115 10 -11 27 -41 40 -67 32
-65 89 -138 130 -166 19 -13 63 -48 97 -79 71 -63 203 -163 215 -163 4 0 16
-8 27 -19 10 -10 73 -57 139 -105 67 -48 126 -94 133 -102 6 -8 17 -14 23 -14
6 0 30 -13 54 -29 l43 -28 -110 -164 c-60 -90 -132 -191 -160 -224 -27 -33
-80 -103 -116 -157 -36 -53 -78 -109 -94 -125 -29 -30 -98 -118 -153 -195 -18
-26 -69 -92 -113 -146 -44 -54 -91 -113 -105 -131 -71 -92 -198 -250 -219
-271 -13 -14 -35 -43 -49 -65 -29 -46 -93 -127 -134 -169 -16 -16 -48 -56 -73
-90 -108 -148 -116 -156 -133 -146 -9 5 -71 61 -136 125 -66 63 -125 115 -130
115 -6 0 -49 32 -96 71 -110 92 -215 169 -228 169 -6 0 -26 13 -44 29 -68 59
-288 196 -421 263 -194 97 -265 111 -572 112 -320 1 -353 -6 -785 -163 -171
-63 -466 -221 -591 -317 -87 -66 -346 -327 -363 -365 -28 -61 -91 -152 -119
-173 -22 -16 -38 -19 -85 -16 -73 6 -261 6 -334 0 -76 -6 -95 9 -167 130 -45
76 -84 123 -196 235 -200 200 -292 267 -555 399 -134 67 -154 76 -385 160
-282 103 -394 121 -685 113 -260 -7 -346 -26 -517 -110 -126 -63 -367 -212
-431 -268 -18 -16 -37 -29 -43 -29 -10 0 -156 -105 -174 -125 -17 -20 -108
-91 -150 -118 -22 -14 -89 -73 -150 -131 -60 -58 -118 -106 -127 -106 -9 0
-29 18 -45 41 -45 65 -142 191 -156 203 -21 18 -92 108 -120 152 -14 22 -38
54 -54 70 -35 35 -139 164 -179 220 -16 22 -74 96 -129 163 -55 68 -121 153
-147 189 -26 37 -83 110 -126 162 -43 52 -86 109 -95 125 -9 17 -34 53 -57 80
-57 70 -172 224 -195 261 -11 17 -47 71 -79 118 -69 101 -69 104 14 149 30 16
59 35 65 42 9 10 175 133 301 220 23 17 82 62 129 100 48 39 112 91 143 116
50 40 160 179 162 203 0 4 19 38 43 75 24 36 78 118 120 182 42 64 83 133 91
153 8 20 31 60 50 89 55 82 174 307 182 341 4 17 22 85 40 151 155 548 250
1495 203 2030 -28 328 -120 855 -214 1230 -80 320 -194 510 -519 870 -208 229
-585 584 -748 704 -42 31 -77 60 -78 65 0 6 9 19 19 30 11 12 37 46 58 77 21
30 85 117 143 194 58 76 117 157 131 180 15 23 52 76 83 116 67 88 121 162
179 245 23 34 83 116 132 183 50 66 122 164 160 218 39 53 89 120 113 147 24
28 51 64 59 81 15 28 55 79 168 215 25 30 62 79 82 108 19 28 47 60 61 71 l27
18 90 -44 c152 -76 528 -200 660 -218 28 -3 84 -15 125 -25 218 -55 519 -110
601 -110 51 0 111 14 164 40 11 5 72 30 135 56 118 48 237 105 302 146 54 34
146 151 207 263 30 55 60 107 67 115 8 9 21 36 29 60 16 44 173 327 225 405
15 22 35 53 44 68 65 107 288 133 816 96z"/>
<path d="M5195 9706 c-90 -41 -145 -124 -165 -249 -12 -77 0 -176 29 -242 62
-139 216 -202 347 -141 198 92 234 440 60 593 -76 67 -179 82 -271 39z m185
-41 c60 -31 88 -97 96 -230 14 -220 -45 -335 -170 -335 -109 0 -159 57 -177
204 -19 157 14 311 76 352 51 33 119 36 175 9z"/>
<path d="M3059 8022 c-145 -48 -259 -151 -328 -294 -50 -106 -70 -188 -77
-313 -26 -436 238 -761 593 -731 88 7 157 35 222 90 51 42 58 39 76 -31 10
-40 16 -48 38 -51 21 -3 28 2 32 20 3 13 4 122 3 243 l-3 220 -28 3 c-31 4
-30 5 -46 -96 -27 -174 -148 -295 -310 -309 -64 -6 -154 15 -209 49 -75 46
-132 156 -158 303 -22 120 -19 387 5 501 45 219 155 324 337 324 183 0 319
-135 342 -340 6 -56 10 -65 28 -68 41 -6 45 13 42 254 l-3 229 -30 0 c-25 0
-30 -5 -36 -34 -4 -18 -13 -44 -19 -57 l-13 -23 -51 39 c-86 65 -137 83 -251
87 -77 2 -113 -1 -156 -15z"/>
<path d="M5031 7526 c-146 -48 -253 -195 -268 -371 -16 -195 76 -369 235 -443
108 -51 267 -32 364 42 82 63 129 196 71 204 -17 3 -27 -6 -44 -40 -51 -102
-107 -145 -204 -155 -158 -16 -254 115 -255 350 l0 67 265 0 265 0 0 48 c0
119 -66 229 -166 278 -69 34 -191 43 -263 20z m186 -75 c63 -29 92 -86 79
-156 l-7 -35 -169 0 -170 0 0 23 c0 40 49 125 86 148 69 42 119 48 181 20z"/>
<path d="M6045 7516 c-49 -23 -81 -51 -103 -91 -10 -17 -11 -12 -12 31 0 33
-5 53 -12 56 -7 2 -75 2 -151 0 -149 -4 -155 -7 -143 -58 7 -26 7 -26 81 -19
l75 7 0 -326 0 -326 -75 0 c-71 0 -75 -1 -81 -25 -12 -49 -13 -49 230 -50 244
0 244 0 232 50 -6 24 -10 25 -82 25 l-76 0 4 233 c4 212 6 237 27 290 28 71
96 147 133 147 23 0 24 -3 24 -51 -1 -44 3 -54 27 -75 40 -34 90 -32 128 5 24
25 29 38 29 79 0 54 -26 94 -75 112 -46 18 -126 12 -180 -14z"/>
<path d="M6673 7526 c-202 -66 -314 -297 -258 -535 30 -127 110 -226 223 -279
48 -23 71 -27 147 -27 82 0 97 3 156 32 123 61 201 174 222 319 29 202 -63
399 -221 472 -69 31 -201 40 -269 18z m172 -67 c58 -16 110 -73 132 -144 22
-73 25 -322 4 -395 -30 -106 -96 -160 -196 -160 -100 0 -166 54 -196 160 -20
71 -18 322 4 392 38 124 134 180 252 147z"/>
<path d="M7550 7531 c-51 -16 -108 -51 -138 -85 -70 -80 -70 -229 1 -304 33
-36 100 -67 222 -102 180 -53 223 -84 212 -157 -12 -74 -89 -123 -194 -123
-72 0 -139 23 -179 61 l-22 20 24 24 c52 52 15 125 -63 125 -75 0 -103 -69
-64 -155 71 -157 362 -207 523 -90 68 50 92 102 93 196 0 66 -3 81 -28 117
-33 50 -106 95 -202 123 -170 50 -201 63 -232 95 -37 36 -40 60 -17 110 35 74
164 107 257 66 50 -22 56 -32 32 -52 -20 -16 -19 -70 1 -98 12 -17 25 -22 59
-22 61 0 89 35 82 104 -4 41 -11 56 -39 82 -53 48 -134 74 -226 73 -42 0 -88
-4 -102 -8z"/>
<path d="M3820 7511 c-111 -6 -115 -7 -118 -29 -6 -42 13 -51 88 -45 l69 6 3
-289 c3 -276 4 -291 26 -339 43 -94 93 -125 202 -125 105 0 178 43 246 144
l34 51 0 -45 c0 -94 64 -156 152 -146 91 10 159 64 128 101 -18 22 -41 18 -72
-12 -23 -22 -30 -24 -43 -13 -13 11 -15 61 -15 369 0 196 -4 361 -8 367 -5 9
-48 10 -152 5 l-145 -6 -3 -29 c-5 -39 10 -45 90 -39 l68 6 0 -159 c0 -99 -6
-184 -15 -227 -28 -132 -116 -251 -205 -278 -50 -15 -85 -5 -114 34 -20 27
-21 43 -26 365 l-5 337 -35 1 c-19 0 -87 -2 -150 -5z"/>
<path d="M5622 5693 c-5 -10 -60 -152 -122 -315 l-112 -297 -37 2 c-29 2 -36
-1 -36 -17 0 -17 9 -18 100 -18 91 0 100 1 100 18 0 16 -7 19 -38 18 -31 -1
-37 2 -32 15 3 9 18 46 32 84 l26 67 119 0 c65 0 118 -1 118 -3 0 -2 13 -39
29 -84 l30 -80 -37 1 c-30 1 -37 -3 -37 -18 0 -17 10 -18 123 -20 117 -1 123
0 120 19 -2 16 -10 20 -39 19 l-36 -1 -114 313 c-89 245 -118 314 -131 314
-10 0 -21 -8 -26 -17z m52 -264 c25 -70 46 -129 46 -133 0 -3 -45 -6 -100 -6
-55 0 -100 2 -100 5 0 2 19 55 43 117 24 62 47 122 51 132 3 10 8 17 10 15 3
-2 25 -61 50 -130z"/>
<path d="M4270 5678 c0 -14 8 -18 40 -18 l40 0 0 -289 0 -288 -37 1 c-31 1
-39 -3 -41 -19 -3 -19 3 -20 166 -19 158 0 172 2 218 25 66 32 94 76 94 146 0
78 -32 128 -104 165 l-29 15 26 18 c65 42 87 136 47 201 -38 61 -89 76 -265
78 -144 2 -155 1 -155 -16z m316 -60 c21 -21 25 -34 25 -81 0 -30 -5 -65 -11
-76 -16 -30 -63 -51 -115 -51 l-45 0 0 121 0 121 60 -4 c48 -3 66 -10 86 -30z
m15 -281 c55 -37 73 -133 38 -199 -16 -29 -70 -48 -139 -48 l-60 0 0 135 0
135 64 0 c49 0 70 -5 97 -23z"/>
<path d="M4892 5444 c-41 -21 -62 -60 -62 -114 0 -56 36 -92 115 -115 100 -28
125 -43 125 -75 0 -59 -79 -87 -155 -56 -39 17 -40 18 -23 46 23 37 -24 75
-61 51 -23 -15 -17 -68 10 -97 32 -35 79 -54 134 -54 111 0 184 78 155 166
-14 42 -49 67 -125 89 -90 26 -115 41 -115 70 0 39 33 65 83 65 54 0 63 -7 63
-50 -1 -33 1 -35 34 -35 34 0 35 1 35 39 0 31 -6 43 -28 59 -37 29 -139 34
-185 11z"/>
<path d="M6042 5444 c-41 -21 -62 -60 -62 -114 0 -56 36 -92 115 -115 100 -28
125 -43 125 -75 0 -59 -79 -87 -155 -56 -39 17 -40 18 -23 46 23 37 -24 75
-61 51 -23 -15 -17 -68 10 -97 32 -35 79 -54 134 -54 111 0 184 78 155 166
-14 42 -49 67 -125 89 -90 26 -115 41 -115 70 0 39 33 65 83 65 54 0 63 -7 63
-50 -1 -33 1 -35 34 -35 34 0 35 1 35 39 0 31 -6 43 -28 59 -37 29 -139 34
-185 11z"/>
</g>
</svg>
